<?xml version="1.0" encoding="UTF-8"?>
<svg id="b" data-name="Слой 2" xmlns="http://www.w3.org/2000/svg" viewBox="0 0 118.88 44.44">
  <g id="c" data-name="Слой 1">
    <g>
      <polygon points="30.33 43.44 26.01 30.72 13.11 30.72 8.91 43.44 1.4 43.44 15.81 1 23.55 1 38.03 43.44 30.33 43.44" style="fill: #fff; stroke-width: 0px;"/>
      <path d="M22.83,2l13.8,40.44h-5.58l-4.32-12.72h-14.34l-4.2,12.72H2.79L16.53,2h6.3M24.26,0h-9.16l-.46,1.36L.9,41.8l-.9,2.64h9.64l.45-1.37,3.75-11.35h11.46l3.86,11.36.46,1.36h9.81l-.9-2.65L24.72,1.35l-.46-1.35h0Z" style="fill: #e94e1b; stroke-width: 0px;"/>
    </g>
    <g>
      <g>
        <path d="M49.74,43.83l-3.59-6.12h-2.16v6.12h-2.87v-15.82h4.59c1.95,0,3.42.39,4.39,1.16,1,.79,1.51,1.99,1.51,3.56,0,.87-.17,1.62-.5,2.21-.33.59-.75,1.07-1.26,1.42-.31.22-.64.41-.97.56l4.23,6.9h-3.36ZM45.71,35.13c1.07,0,1.85-.2,2.31-.59.44-.38.66-.95.66-1.73s-.22-1.34-.66-1.66c-.49-.35-1.3-.52-2.41-.52h-1.62v4.5h1.72Z" style="fill: #fff; stroke-width: 0px;"/>
        <path d="M45.71,28.52c1.84,0,3.2.35,4.08,1.05.88.7,1.32,1.75,1.32,3.16,0,.79-.14,1.45-.44,1.97-.29.53-.66.94-1.11,1.26-.45.31-.92.56-1.42.74l4.07,6.64h-2.18l-3.59-6.12h-2.95v6.12h-1.87v-14.81h4.09M43.49,35.63h2.22c1.2,0,2.08-.24,2.63-.72.55-.48.83-1.18.83-2.11s-.29-1.66-.87-2.06c-.58-.41-1.48-.61-2.7-.61h-2.12v5.5M45.71,27.52h-5.09v16.81h3.87v-6.12h1.37l3.3,5.63.29.49h4.54l-.93-1.52-3.48-5.68c.19-.11.37-.22.55-.35.58-.4,1.05-.93,1.42-1.59.37-.67.56-1.5.56-2.45,0-1.72-.57-3.05-1.7-3.95-1.07-.85-2.61-1.27-4.7-1.27h0ZM44.49,31.14h1.12c1.25,0,1.84.23,2.12.43.11.08.45.31.45,1.25s-.36,1.25-.48,1.35c-.36.31-1.04.47-1.98.47h-1.22v-3.5h0Z" style="fill: #e94e1b; stroke-width: 0px;"/>
      </g>
      <g>
        <polygon points="56.85 43.83 56.85 30.66 52.22 30.66 52.22 28.02 64.32 28.02 64.32 30.66 59.72 30.66 59.72 43.83 56.85 43.83" style="fill: #fff; stroke-width: 0px;"/>
        <path d="M63.82,28.52v1.64h-4.61v13.18h-1.87v-13.18h-4.63v-1.64h11.1M64.82,27.52h-13.1v3.64h4.63v13.18h3.87v-13.18h4.61v-3.64h0Z" style="fill: #e94e1b; stroke-width: 0px;"/>
      </g>
    </g>
    <g>
      <g>
        <path d="M41.12,25.12V5.56h5.41c2.54,0,4.43.52,5.63,1.55,1.22,1.05,1.84,2.53,1.84,4.41,0,1.1-.25,2.14-.74,3.1-.51.98-1.36,1.79-2.53,2.39-1.15.59-2.71.89-4.63.89h-1.63v7.23h-3.34ZM45.83,14.89c1.66,0,2.9-.26,3.68-.78.72-.48,1.08-1.29,1.08-2.49,0-1.04-.31-1.79-.95-2.28-.67-.52-1.78-.78-3.31-.78h-1.87v6.33h1.37Z" style="fill: #fff; stroke-width: 0px;"/>
        <path d="M46.53,6.06c2.43,0,4.19.48,5.3,1.43,1.11.95,1.66,2.3,1.66,4.03,0,1.02-.23,1.98-.69,2.87-.46.89-1.23,1.62-2.31,2.17-1.08.56-2.55.83-4.41.83h-2.13v7.23h-2.34V6.06h4.91M43.96,15.39h1.87c1.77,0,3.08-.29,3.95-.86.87-.57,1.3-1.54,1.3-2.91,0-1.2-.38-2.09-1.14-2.68-.76-.59-1.97-.88-3.61-.88h-2.37v7.33M46.53,5.06h-5.91v20.56h4.34v-7.23h1.13c2.03,0,3.63-.31,4.86-.94,1.27-.65,2.19-1.53,2.75-2.6.53-1.03.8-2.15.8-3.33,0-2.03-.68-3.64-2.01-4.79-1.31-1.13-3.26-1.67-5.96-1.67h0ZM44.96,9.06h1.37c1.39,0,2.43.23,3,.68.51.39.76,1.01.76,1.89,0,1.52-.64,1.94-.85,2.08-.7.46-1.84.69-3.4.69h-.87v-5.33h0Z" style="fill: #e94e1b; stroke-width: 0px;"/>
      </g>
      <g>
        <path d="M68.66,25.12l-2.24-5.75h-6.67l-2.21,5.75h-3.44l7.64-19.64h2.79l7.62,19.64h-3.49ZM65.34,16.3l-1.83-4.94c-.05-.14-.14-.4-.27-.77-.04-.12-.08-.24-.12-.36-.15.47-.27.85-.37,1.13l-1.86,4.95h4.44Z" style="fill: #fff; stroke-width: 0px;"/>
        <path d="M64.19,5.98l7.23,18.64h-2.42l-2.24-5.75h-7.36l-2.21,5.75h-2.37l7.25-18.64h2.11M60.18,16.8h5.88l-2.08-5.62c-.05-.14-.14-.39-.26-.75-.12-.36-.24-.74-.35-1.13-.11-.39-.2-.69-.27-.9-.12.54-.26,1.06-.42,1.57-.16.51-.29.91-.39,1.21l-2.11,5.62M64.87,4.98h-3.47l-.25.64-7.25,18.64-.53,1.36h4.52l.25-.64,1.96-5.11h5.99l1.99,5.11.25.64h4.56l-.53-1.36-7.23-18.64-.25-.64h0ZM61.63,15.8l1.51-4.02,1.49,4.02h-3Z" style="fill: #e94e1b; stroke-width: 0px;"/>
      </g>
      <g>
        <path d="M81.92,25.38c-2.01,0-3.73-.41-5.11-1.22-1.4-.82-2.48-2-3.2-3.52-.71-1.49-1.08-3.27-1.08-5.3s.4-3.79,1.2-5.28c.81-1.5,1.98-2.68,3.49-3.52,1.5-.83,3.33-1.25,5.43-1.25,1.07,0,2.09.1,3.05.3.96.2,1.86.48,2.69.84l.46.2-1.29,2.95-.46-.21c-.63-.28-1.35-.53-2.14-.73-.78-.2-1.6-.3-2.44-.3-2.09,0-3.67.6-4.82,1.84-1.15,1.23-1.73,2.96-1.73,5.15,0,1.4.23,2.65.68,3.72.44,1.05,1.11,1.84,2.05,2.42.94.58,2.2.87,3.77.87.79,0,1.46-.04,2-.12.41-.06.79-.13,1.14-.21v-4.62h-4.08v-3.08h7.42v9.96l-.34.11c-1.02.34-2.07.59-3.12.75-1.04.16-2.24.24-3.56.24Z" style="fill: #fff; stroke-width: 0px;"/>
        <path d="M82.65,5.8c1.04,0,2.02.1,2.95.29.93.19,1.79.46,2.59.81l-.88,2.03c-.66-.29-1.4-.55-2.22-.75-.82-.21-1.68-.31-2.56-.31-2.22,0-3.95.67-5.19,2-1.24,1.33-1.86,3.16-1.86,5.49,0,1.47.24,2.78.72,3.91.48,1.14,1.23,2.02,2.25,2.65,1.02.63,2.37.95,4.03.95.81,0,1.51-.04,2.08-.13.57-.09,1.09-.19,1.56-.31v-5.51h-4.08v-2.08h6.42v9.1c-1.01.33-2.02.57-3.04.73-1.02.16-2.18.23-3.48.23-1.92,0-3.54-.39-4.86-1.16-1.32-.77-2.32-1.87-3-3.3-.68-1.43-1.03-3.12-1.03-5.08s.38-3.62,1.14-5.04c.76-1.42,1.86-2.53,3.29-3.31,1.43-.79,3.16-1.18,5.19-1.18M82.65,4.8c-2.19,0-4.1.44-5.67,1.31-1.59.88-2.84,2.13-3.69,3.72-.84,1.56-1.26,3.42-1.26,5.52s.38,3.96,1.12,5.51c.77,1.61,1.91,2.86,3.4,3.73,1.46.86,3.27,1.29,5.37,1.29,1.35,0,2.57-.08,3.63-.25,1.07-.16,2.15-.42,3.2-.77l.69-.23v-10.82h-8.42v4.08h4.08v3.71c-.23.04-.46.09-.71.12-.52.08-1.17.12-1.93.12-1.47,0-2.65-.27-3.5-.8-.85-.53-1.46-1.24-1.85-2.19-.42-1.01-.64-2.19-.64-3.53,0-2.08.52-3.65,1.59-4.81,1.05-1.13,2.51-1.68,4.45-1.68.8,0,1.58.09,2.32.28.76.19,1.46.43,2.06.7l.92.41.4-.93.88-2.03.4-.92-.92-.4c-.86-.37-1.79-.66-2.78-.87-.99-.2-2.05-.31-3.15-.31h0Z" style="fill: #e94e1b; stroke-width: 0px;"/>
      </g>
      <g>
        <polygon points="92.39 25.12 92.39 5.56 103.77 5.56 103.77 8.61 95.73 8.61 95.73 13.41 103.3 13.41 103.3 16.44 95.73 16.44 95.73 22.07 103.77 22.07 103.77 25.12 92.39 25.12" style="fill: #fff; stroke-width: 0px;"/>
        <path d="M103.27,6.06v2.05h-8.03v5.8h7.57v2.03h-7.57v6.63h8.03v2.05h-10.37V6.06h10.37M104.27,5.06h-12.37v20.56h12.37v-4.05h-8.03v-4.63h7.57v-4.03h-7.57v-3.8h8.03v-4.05h0Z" style="fill: #e94e1b; stroke-width: 0px;"/>
      </g>
      <g>
        <path d="M111.25,25.38c-1.07,0-2.07-.08-2.97-.24-.92-.16-1.71-.4-2.34-.69l-.29-.13v-3.32l.7.31c.59.26,1.35.51,2.24.73.88.21,1.81.32,2.75.32,1.27,0,2.22-.24,2.83-.7.58-.44.86-1.02.86-1.79,0-.51-.11-.94-.31-1.27-.21-.34-.6-.67-1.16-.99-.61-.34-1.47-.71-2.56-1.1-1.64-.6-2.91-1.35-3.77-2.23-.9-.93-1.35-2.19-1.35-3.75,0-1.09.29-2.04.85-2.83.55-.77,1.33-1.38,2.3-1.79.95-.41,2.05-.61,3.28-.61,1.05,0,2.03.1,2.92.3.88.2,1.69.46,2.41.79l.42.19-1.07,2.94-.49-.21c-.61-.27-1.29-.49-2.02-.68-.71-.18-1.46-.27-2.23-.27-1.04,0-1.81.21-2.3.62-.47.4-.71.91-.71,1.58,0,.53.11.96.31,1.29.21.34.58.66,1.09.95.56.32,1.35.66,2.33,1.04,1.11.41,2.07.85,2.85,1.33.82.5,1.45,1.11,1.88,1.82.44.72.66,1.62.66,2.68,0,1.8-.67,3.23-1.99,4.24-1.28.98-3.01,1.48-5.14,1.48Z" style="fill: #fff; stroke-width: 0px;"/>
        <path d="M112.31,5.8c1.02,0,1.96.1,2.81.29.85.19,1.62.44,2.31.75l-.73,2c-.64-.28-1.34-.51-2.09-.7-.75-.19-1.54-.29-2.35-.29-1.16,0-2.04.25-2.63.74-.59.49-.88,1.15-.88,1.96,0,.62.13,1.14.39,1.56.26.42.68.79,1.27,1.12.59.33,1.39.69,2.39,1.07,1.09.4,2.01.83,2.77,1.29.75.46,1.33,1.01,1.72,1.65.39.64.58,1.45.58,2.42,0,1.65-.6,2.93-1.79,3.85-1.2.92-2.81,1.38-4.84,1.38-1.04,0-2-.08-2.89-.23-.88-.16-1.62-.37-2.21-.65v-2.24c.62.28,1.4.53,2.33.75.93.23,1.88.34,2.87.34,1.39,0,2.43-.27,3.13-.81.7-.54,1.05-1.26,1.05-2.18,0-.61-.13-1.12-.39-1.53-.26-.42-.71-.8-1.34-1.16-.63-.35-1.51-.73-2.64-1.13-1.58-.57-2.77-1.27-3.58-2.11-.81-.83-1.21-1.97-1.21-3.41,0-.99.25-1.83.75-2.54.5-.7,1.2-1.24,2.09-1.62.89-.38,1.92-.57,3.08-.57M112.31,4.8c-1.29,0-2.46.22-3.47.65-1.06.45-1.91,1.11-2.51,1.96-.62.87-.94,1.92-.94,3.12,0,1.7.5,3.08,1.49,4.1.91.94,2.24,1.73,3.95,2.35,1.07.38,1.91.74,2.49,1.06.6.34.86.63.98.82.16.25.24.59.24,1,0,.61-.2,1.04-.66,1.39-.52.4-1.37.6-2.53.6-.91,0-1.79-.1-2.64-.31-.86-.21-1.59-.44-2.16-.7l-1.41-.62v4.41l.57.27c.67.31,1.49.56,2.46.73.93.17,1.96.25,3.06.25,2.24,0,4.08-.53,5.45-1.58,1.45-1.11,2.18-2.67,2.18-4.64,0-1.15-.25-2.14-.73-2.94-.47-.78-1.16-1.44-2.05-1.98-.81-.49-1.8-.95-2.95-1.37-.94-.36-1.7-.7-2.25-1-.44-.24-.75-.51-.91-.77-.16-.25-.24-.6-.24-1.03,0-.52.17-.9.53-1.2.4-.34,1.07-.51,1.98-.51.73,0,1.44.09,2.11.26.7.18,1.35.4,1.94.65l.97.42.36-1,.73-2,.32-.87-.85-.38c-.75-.34-1.59-.61-2.51-.82-.92-.21-1.94-.31-3.03-.31h0Z" style="fill: #e94e1b; stroke-width: 0px;"/>
      </g>
    </g>
  </g>
</svg>