<?xml version="1.0" encoding="UTF-8"?>
<svg id="_Слой_2" data-name="Слой 2" xmlns="http://www.w3.org/2000/svg" viewBox="0 0 11 15.18">
  <defs>
    <style>
      .cls-1 {
        fill: none;
        stroke: #fff;
        stroke-miterlimit: 10;
      }
    </style>
  </defs>
  <g id="_Слой_1-2" data-name="Слой 1">
    <path class="cls-1" d="M5.5,2.21h0c2.76,0,5,2.24,5,5v4c0,.55-.45,1-1,1H1.5c-.55,0-1-.45-1-1v-4C.5,4.45,2.74,2.21,5.5,2.21Z"/>
    <path class="cls-1" d="M2.95,12.21h5.11v.47c0,1.1-.9,2-2,2h-1.11c-1.1,0-2-.9-2-2v-.47h0Z"/>
    <path class="cls-1" d="M3.5,2.5c0-1.1.9-2,2-2h0c1.1,0,2,.9,2,2"/>
  </g>
</svg>